<?xml version="1.0" standalone="no"?>
<!DOCTYPE svg PUBLIC "-//W3C//DTD SVG 20010904//EN"
 "http://www.w3.org/TR/2001/REC-SVG-20010904/DTD/svg10.dtd">
<svg version="1.0" xmlns="http://www.w3.org/2000/svg"
 width="452.000000pt" height="452.000000pt" viewBox="0 0 452.000000 452.000000"
 preserveAspectRatio="xMidYMid meet">

<g transform="translate(0.000000,452.000000) scale(0.100000,-0.100000)"
fill="rgba(39,62,84,0.82)" stroke="none">
<path d="M1705 4134 c-593 -87 -1056 -462 -1246 -1009 -60 -175 -73 -259 -74
-485 0 -179 3 -218 23 -309 71 -314 213 -565 445 -787 541 -518 1391 -552
1971 -79 l53 43 67 -67 66 -67 0 -119 0 -120 358 -357 c266 -266 368 -362 402
-377 92 -42 219 -20 289 50 52 52 74 101 79 177 8 119 11 116 -392 519 l-361
363 -120 0 -119 0 -67 66 -67 67 43 53 c368 451 437 1092 175 1614 -73 145
-158 259 -289 390 -216 215 -435 336 -731 407 -88 21 -135 25 -290 28 -102 2
-198 1 -215 -1z m401 -390 c225 -45 426 -156 585 -321 47 -48 104 -117 128
-152 63 -92 128 -236 158 -348 25 -90 27 -114 27 -288 0 -210 -10 -262 -77
-430 -107 -266 -346 -505 -612 -612 -142 -57 -226 -74 -385 -80 -329 -12 -595
88 -826 309 -300 288 -416 697 -313 1100 146 574 733 941 1315 822z"/>
<path d="M1227 2989 c-91 -48 -123 -179 -64 -267 48 -73 148 -103 230 -68 57
23 117 111 117 171 0 60 -60 148 -117 171 -46 20 -121 17 -166 -7z"/>
<path d="M2357 2989 c-91 -48 -123 -179 -64 -267 48 -73 148 -103 230 -68 57
23 117 111 117 171 0 60 -60 148 -117 171 -46 20 -121 17 -166 -7z"/>
<path d="M1735 2436 c-135 -27 -292 -97 -355 -159 -82 -80 -81 -200 3 -274 73
-64 155 -65 253 -4 77 49 138 66 244 66 108 0 173 -17 260 -70 30 -19 71 -37
91 -40 110 -20 219 78 219 195 -1 41 -35 104 -76 139 -55 45 -186 107 -280
131 -102 27 -266 34 -359 16z"/>
</g>
</svg>
